<svg width="155" height="165" fill="none" xmlns="http://www.w3.org/2000/svg"><path d="M117.5 49.5V116c0 5.523-4.477 10-10 10H46m0 0l12-10.5M46 126l12 12M18 95.5h56c5.523 0 10-4.477 10-10V16c0-5.523 4.477-10 10-10h48c5.523 0 10 4.477 10 10v135.5c0 5.523-4.477 10-10 10H18c-5.523 0-10-4.477-10-10v-46c0-5.523 4.477-10 10-10z" stroke="#6E7582" stroke-width="6"/><path d="M112.5 46.22v66.008c0 5.523-4.477 10-10 10H41m0 0l12-10.432m-12 10.432l12 11.923M13 91.924h56c5.523 0 10-4.477 10-10V13c0-5.523 4.477-10 10-10h48c5.523 0 10 4.477 10 10v134.5c0 5.523-4.477 10-10 10H13c-5.523 0-10-4.477-10-10v-45.576c0-5.522 4.477-10 10-10z" stroke="#FFF9D7" stroke-width="5"/></svg>